<mxfile host="" modified="2020-06-07T23:20:04.890Z" agent="5.0 (Windows NT 10.0; Win64; x64) AppleWebKit/537.36 (KHTML, like Gecko) Code/1.45.1 Chrome/78.0.3904.130 Electron/7.2.4 Safari/537.36" etag="uWKwGnhEHJanfZLV8Tz1" version="13.1.3" pages="6">
    <diagram id="6hGFLwfOUW9BJ-s0fimq" name="webPack">
        <mxGraphModel dx="1417" dy="824" grid="1" gridSize="10" guides="1" tooltips="1" connect="1" arrows="1" fold="1" page="1" pageScale="1" pageWidth="1169" pageHeight="827" math="0" shadow="0">
            <root>
                <mxCell id="0"/>
                <mxCell id="1" parent="0"/>
                <mxCell id="98" value="&lt;font style=&quot;font-size: 18px&quot;&gt;Why&lt;/font&gt;" style="rounded=0;whiteSpace=wrap;html=1;" vertex="1" parent="1">
                    <mxGeometry x="471" y="415" width="120" height="60" as="geometry"/>
                </mxCell>
                <mxCell id="102" value="&lt;span style=&quot;font-size: 18px&quot;&gt;How&lt;/span&gt;" style="rounded=0;whiteSpace=wrap;html=1;" vertex="1" parent="1">
                    <mxGeometry x="471" y="555" width="120" height="60" as="geometry"/>
                </mxCell>
                <mxCell id="115" style="edgeStyle=orthogonalEdgeStyle;rounded=1;orthogonalLoop=1;jettySize=auto;html=1;exitX=1;exitY=0.5;exitDx=0;exitDy=0;entryX=0;entryY=0.5;entryDx=0;entryDy=0;" edge="1" parent="1" source="113" target="100">
                    <mxGeometry relative="1" as="geometry"/>
                </mxCell>
                <mxCell id="116" style="edgeStyle=orthogonalEdgeStyle;rounded=1;orthogonalLoop=1;jettySize=auto;html=1;exitX=1;exitY=0.5;exitDx=0;exitDy=0;entryX=0;entryY=0.5;entryDx=0;entryDy=0;" edge="1" parent="1" source="113" target="98">
                    <mxGeometry relative="1" as="geometry"/>
                </mxCell>
                <mxCell id="117" style="edgeStyle=orthogonalEdgeStyle;rounded=1;orthogonalLoop=1;jettySize=auto;html=1;exitX=1;exitY=0.5;exitDx=0;exitDy=0;entryX=0;entryY=0.5;entryDx=0;entryDy=0;" edge="1" parent="1" source="113" target="102">
                    <mxGeometry relative="1" as="geometry"/>
                </mxCell>
                <mxCell id="118" style="edgeStyle=orthogonalEdgeStyle;rounded=1;orthogonalLoop=1;jettySize=auto;html=1;exitX=1;exitY=0.5;exitDx=0;exitDy=0;entryX=0;entryY=0.5;entryDx=0;entryDy=0;" edge="1" parent="1" source="113" target="109">
                    <mxGeometry relative="1" as="geometry"/>
                </mxCell>
                <mxCell id="119" style="edgeStyle=orthogonalEdgeStyle;rounded=1;orthogonalLoop=1;jettySize=auto;html=1;exitX=1;exitY=0.5;exitDx=0;exitDy=0;entryX=0;entryY=0.5;entryDx=0;entryDy=0;" edge="1" parent="1" source="113" target="111">
                    <mxGeometry relative="1" as="geometry"/>
                </mxCell>
                <mxCell id="113" value="&lt;span style=&quot;font-size: 18px&quot;&gt;webPack&lt;br&gt;&lt;/span&gt;" style="rounded=0;whiteSpace=wrap;html=1;" vertex="1" parent="1">
                    <mxGeometry x="240" y="555" width="120" height="60" as="geometry"/>
                </mxCell>
                <mxCell id="109" value="&lt;span style=&quot;font-size: 18px&quot;&gt;Inside&lt;/span&gt;" style="rounded=0;whiteSpace=wrap;html=1;" vertex="1" parent="1">
                    <mxGeometry x="471" y="695" width="120" height="60" as="geometry"/>
                </mxCell>
                <mxCell id="111" value="&lt;span style=&quot;font-size: 18px&quot;&gt;Export&lt;/span&gt;" style="rounded=0;whiteSpace=wrap;html=1;" vertex="1" parent="1">
                    <mxGeometry x="471" y="835" width="120" height="60" as="geometry"/>
                </mxCell>
                <mxCell id="100" value="&lt;span style=&quot;font-size: 18px&quot;&gt;What&lt;/span&gt;" style="rounded=0;whiteSpace=wrap;html=1;" vertex="1" parent="1">
                    <mxGeometry x="471" y="275" width="120" height="60" as="geometry"/>
                </mxCell>
            </root>
        </mxGraphModel>
    </diagram>
    <diagram id="XiqUCo6GnZzwaEPwd8Sf" name="What">
        <mxGraphModel dx="992" dy="577" grid="1" gridSize="10" guides="1" tooltips="1" connect="1" arrows="1" fold="1" page="1" pageScale="1" pageWidth="1169" pageHeight="827" math="0" shadow="0">
            <root>
                <mxCell id="H03FQ0UtckC1y0QdnC1N-0"/>
                <mxCell id="H03FQ0UtckC1y0QdnC1N-1" parent="H03FQ0UtckC1y0QdnC1N-0"/>
            </root>
        </mxGraphModel>
    </diagram>
    <diagram id="5wwRIe0Xk5iu5gXwRUmf" name="Why">
        <mxGraphModel dx="992" dy="577" grid="1" gridSize="10" guides="1" tooltips="1" connect="1" arrows="1" fold="1" page="1" pageScale="1" pageWidth="827" pageHeight="1169" math="0" shadow="0">
            <root>
                <mxCell id="Ko6x21cP4NmNv93zAIZ_-0"/>
                <mxCell id="Ko6x21cP4NmNv93zAIZ_-1" parent="Ko6x21cP4NmNv93zAIZ_-0"/>
            </root>
        </mxGraphModel>
    </diagram>
    <diagram id="CrYnq88ntsjkxuK0wAAt" name="How">
        <mxGraphModel dx="1444" dy="577" grid="1" gridSize="10" guides="1" tooltips="1" connect="1" arrows="1" fold="1" page="1" pageScale="1" pageWidth="1169" pageHeight="827" math="0" shadow="0">
            <root>
                <mxCell id="W_GrJ6avN32SDptm_MAF-0"/>
                <mxCell id="W_GrJ6avN32SDptm_MAF-1" parent="W_GrJ6avN32SDptm_MAF-0"/>
                <mxCell id="D54nxlyHDCIGiZaqr8-n-2" value="" style="edgeStyle=orthogonalEdgeStyle;rounded=1;orthogonalLoop=1;jettySize=auto;html=1;" edge="1" parent="W_GrJ6avN32SDptm_MAF-1" source="D54nxlyHDCIGiZaqr8-n-0" target="D54nxlyHDCIGiZaqr8-n-1">
                    <mxGeometry relative="1" as="geometry"/>
                </mxCell>
                <mxCell id="D54nxlyHDCIGiZaqr8-n-0" value="How" style="whiteSpace=wrap;html=1;" vertex="1" parent="W_GrJ6avN32SDptm_MAF-1">
                    <mxGeometry x="525" y="150" width="120" height="60" as="geometry"/>
                </mxCell>
                <mxCell id="D54nxlyHDCIGiZaqr8-n-4" value="" style="edgeStyle=orthogonalEdgeStyle;rounded=1;orthogonalLoop=1;jettySize=auto;html=1;" edge="1" parent="W_GrJ6avN32SDptm_MAF-1" source="D54nxlyHDCIGiZaqr8-n-1" target="D54nxlyHDCIGiZaqr8-n-3">
                    <mxGeometry relative="1" as="geometry"/>
                </mxCell>
                <mxCell id="D54nxlyHDCIGiZaqr8-n-8" value="" style="edgeStyle=orthogonalEdgeStyle;rounded=1;orthogonalLoop=1;jettySize=auto;html=1;" edge="1" parent="W_GrJ6avN32SDptm_MAF-1" source="D54nxlyHDCIGiZaqr8-n-1" target="D54nxlyHDCIGiZaqr8-n-7">
                    <mxGeometry relative="1" as="geometry"/>
                </mxCell>
                <mxCell id="D54nxlyHDCIGiZaqr8-n-1" value="How" style="whiteSpace=wrap;html=1;" vertex="1" parent="W_GrJ6avN32SDptm_MAF-1">
                    <mxGeometry x="525" y="290" width="120" height="60" as="geometry"/>
                </mxCell>
                <mxCell id="D54nxlyHDCIGiZaqr8-n-10" value="" style="edgeStyle=orthogonalEdgeStyle;rounded=1;orthogonalLoop=1;jettySize=auto;html=1;" edge="1" parent="W_GrJ6avN32SDptm_MAF-1" source="D54nxlyHDCIGiZaqr8-n-7" target="D54nxlyHDCIGiZaqr8-n-9">
                    <mxGeometry relative="1" as="geometry"/>
                </mxCell>
                <mxCell id="D54nxlyHDCIGiZaqr8-n-7" value="How" style="whiteSpace=wrap;html=1;" vertex="1" parent="W_GrJ6avN32SDptm_MAF-1">
                    <mxGeometry x="725" y="290" width="120" height="60" as="geometry"/>
                </mxCell>
                <mxCell id="D54nxlyHDCIGiZaqr8-n-12" value="" style="edgeStyle=orthogonalEdgeStyle;rounded=1;orthogonalLoop=1;jettySize=auto;html=1;" edge="1" parent="W_GrJ6avN32SDptm_MAF-1" source="D54nxlyHDCIGiZaqr8-n-9" target="D54nxlyHDCIGiZaqr8-n-11">
                    <mxGeometry relative="1" as="geometry"/>
                </mxCell>
                <mxCell id="D54nxlyHDCIGiZaqr8-n-9" value="How" style="whiteSpace=wrap;html=1;" vertex="1" parent="W_GrJ6avN32SDptm_MAF-1">
                    <mxGeometry x="925" y="290" width="120" height="60" as="geometry"/>
                </mxCell>
                <mxCell id="D54nxlyHDCIGiZaqr8-n-11" value="How" style="whiteSpace=wrap;html=1;" vertex="1" parent="W_GrJ6avN32SDptm_MAF-1">
                    <mxGeometry x="1125" y="290" width="120" height="60" as="geometry"/>
                </mxCell>
                <mxCell id="D54nxlyHDCIGiZaqr8-n-6" value="" style="edgeStyle=orthogonalEdgeStyle;rounded=1;orthogonalLoop=1;jettySize=auto;html=1;" edge="1" parent="W_GrJ6avN32SDptm_MAF-1" source="D54nxlyHDCIGiZaqr8-n-3" target="D54nxlyHDCIGiZaqr8-n-5">
                    <mxGeometry relative="1" as="geometry"/>
                </mxCell>
                <mxCell id="D54nxlyHDCIGiZaqr8-n-3" value="How" style="whiteSpace=wrap;html=1;" vertex="1" parent="W_GrJ6avN32SDptm_MAF-1">
                    <mxGeometry x="325" y="290" width="120" height="60" as="geometry"/>
                </mxCell>
                <mxCell id="D54nxlyHDCIGiZaqr8-n-5" value="How" style="whiteSpace=wrap;html=1;" vertex="1" parent="W_GrJ6avN32SDptm_MAF-1">
                    <mxGeometry x="125" y="290" width="120" height="60" as="geometry"/>
                </mxCell>
            </root>
        </mxGraphModel>
    </diagram>
    <diagram id="Z-nrA5L-h95bzS2lmcla" name="Inside">
        <mxGraphModel dx="992" dy="577" grid="1" gridSize="10" guides="1" tooltips="1" connect="1" arrows="1" fold="1" page="1" pageScale="1" pageWidth="827" pageHeight="1169" math="0" shadow="0">
            <root>
                <mxCell id="wgrpLvMI-CCwnUauuDr7-0"/>
                <mxCell id="wgrpLvMI-CCwnUauuDr7-1" parent="wgrpLvMI-CCwnUauuDr7-0"/>
            </root>
        </mxGraphModel>
    </diagram>
    <diagram id="bcw2T_n9rW20YttvgZXY" name="Export">
        <mxGraphModel dx="992" dy="577" grid="1" gridSize="10" guides="1" tooltips="1" connect="1" arrows="1" fold="1" page="1" pageScale="1" pageWidth="827" pageHeight="1169" math="0" shadow="0">
            <root>
                <mxCell id="K40HuHnwFd__yBDZoHWH-0"/>
                <mxCell id="K40HuHnwFd__yBDZoHWH-1" parent="K40HuHnwFd__yBDZoHWH-0"/>
            </root>
        </mxGraphModel>
    </diagram>
</mxfile>